<svg xmlns="http://www.w3.org/2000/svg" width="17" height="20" viewBox="0 0 17 20">
  <g id="Group_65" data-name="Group 65" transform="translate(-1270 -91)">
    <g id="Subtraction_1" data-name="Subtraction 1" transform="translate(3545 -185)" fill="#fff">
      <path d="M -2258.500244140625 295.5 L -2274.500244140625 295.5 C -2274.500244140625 295.4998779296875 -2274.500244140625 295.4997253417969 -2274.500244140625 295.4996032714844 C -2274.500244140625 291.6400146484375 -2270.9111328125 288.5 -2266.499755859375 288.5 C -2262.0888671875 288.5 -2258.500244140625 291.6400146484375 -2258.500244140625 295.4996032714844 C -2258.500244140625 295.4997253417969 -2258.500244140625 295.4998474121094 -2258.500244140625 295.5 Z" stroke="none"/>
      <path d="M -2259.022216796875 295 C -2259.3173828125 291.6485290527344 -2262.558349609375 289 -2266.499755859375 289 C -2270.441650390625 289 -2273.68310546875 291.6485290527344 -2273.978271484375 295 L -2259.022216796875 295 M -2258.01904296875 296 L -2258.02001953125 296 L -2274.98193359375 296 C -2274.99462890625 295.8253479003906 -2275.000244140625 295.6572875976563 -2275.000244140625 295.4996032714844 C -2275.000244140625 291.3642883300781 -2271.18701171875 288 -2266.499755859375 288 C -2261.81298828125 288 -2258.000244140625 291.3642883300781 -2258.000244140625 295.4996032714844 C -2258.000244140625 295.66259765625 -2258.006591796875 295.8306579589844 -2258.01904296875 295.9990539550781 L -2258.01904296875 296 Z" stroke="none" fill="#1b1b1b"/>
    </g>
    <g id="Ellipse_8" data-name="Ellipse 8" transform="translate(1273.5 91)" fill="#fff" stroke="#1b1b1b" stroke-width="1">
      <circle cx="5" cy="5" r="5" stroke="none"/>
      <circle cx="5" cy="5" r="4.5" fill="none"/>
    </g>
  </g>
</svg>
